<svg width="681" height="35" viewBox="0 0 681 35" fill="none" xmlns="http://www.w3.org/2000/svg">
<rect opacity="0.2" x="11" width="670" height="35" rx="17.5" fill="#484848"/>
<path d="M651.925 26.9198L643.809 19.253C645.069 17.715 645.75 15.8344 645.75 13.8565C645.75 11.4889 644.772 9.26883 643.003 7.59495C641.234 5.92107 638.878 5 636.375 5C633.872 5 631.516 5.92403 629.747 7.59495C627.975 9.26587 627 11.4889 627 13.8565C627 16.2212 627.978 18.4471 629.747 20.118C631.516 21.7919 633.869 22.713 636.375 22.713C638.469 22.713 640.456 22.0694 642.084 20.8826L650.2 28.5464C650.224 28.5689 650.252 28.5868 650.283 28.599C650.314 28.6111 650.347 28.6174 650.381 28.6174C650.415 28.6174 650.448 28.6111 650.479 28.599C650.51 28.5868 650.539 28.5689 650.562 28.5464L651.925 27.2623C651.949 27.2398 651.968 27.2131 651.98 27.1837C651.993 27.1543 652 27.1228 652 27.091C652 27.0592 651.993 27.0277 651.98 26.9984C651.968 26.969 651.949 26.9423 651.925 26.9198ZM641.325 18.5327C640 19.7815 638.244 20.4693 636.375 20.4693C634.506 20.4693 632.75 19.7815 631.425 18.5327C630.103 17.281 629.375 15.6219 629.375 13.8565C629.375 12.0911 630.103 10.429 631.425 9.18026C632.75 7.9315 634.506 7.24364 636.375 7.24364C638.244 7.24364 640.003 7.92855 641.325 9.18026C642.647 10.432 643.375 12.0911 643.375 13.8565C643.375 15.6219 642.647 17.2839 641.325 18.5327Z" fill="#F4F4F4"/>
<path d="M30.6822 25.375V10.8295H35.7674C36.7807 10.8295 37.6164 11.0047 38.2745 11.3551C38.9327 11.7008 39.4227 12.1671 39.7447 12.7543C40.0667 13.3366 40.2277 13.983 40.2277 14.6932C40.2277 15.3182 40.1164 15.8343 39.8938 16.2415C39.676 16.6487 39.3872 16.9706 39.0274 17.2074C38.6723 17.4441 38.2864 17.6193 37.8697 17.733V17.875C38.3148 17.9034 38.7622 18.0597 39.212 18.3438C39.6618 18.6278 40.0383 19.035 40.3413 19.5653C40.6443 20.0956 40.7958 20.7443 40.7958 21.5114C40.7958 22.2405 40.6301 22.8963 40.2987 23.4787C39.9672 24.0611 39.444 24.5227 38.7291 24.8636C38.0141 25.2045 37.0837 25.375 35.9379 25.375H30.6822ZM32.4436 23.8125H35.9379C37.0885 23.8125 37.9052 23.59 38.3882 23.1449C38.8759 22.6951 39.1197 22.1506 39.1197 21.5114C39.1197 21.0189 38.9942 20.5644 38.7433 20.1477C38.4923 19.7263 38.1349 19.3902 37.6708 19.1392C37.2068 18.8835 36.6576 18.7557 36.0231 18.7557H32.4436V23.8125ZM32.4436 17.2216H35.7106C36.2409 17.2216 36.7191 17.1174 37.1453 16.9091C37.5761 16.7008 37.917 16.4072 38.168 16.0284C38.4237 15.6496 38.5515 15.2045 38.5515 14.6932C38.5515 14.054 38.329 13.5118 37.8839 13.0668C37.4388 12.617 36.7333 12.392 35.7674 12.392H32.4436V17.2216ZM50.3377 20.9148V14.4659H52.0139V25.375H50.3377V23.5284H50.2241C49.9684 24.0824 49.5707 24.5535 49.0309 24.9418C48.4912 25.3253 47.8093 25.517 46.9855 25.517C46.3036 25.517 45.6976 25.3679 45.1673 25.0696C44.637 24.7666 44.2203 24.312 43.9173 23.706C43.6143 23.0952 43.4627 22.3258 43.4627 21.3977V14.4659H45.1389V21.2841C45.1389 22.0795 45.3614 22.714 45.8065 23.1875C46.2563 23.661 46.8292 23.8977 47.5252 23.8977C47.9419 23.8977 48.3657 23.7912 48.7965 23.5781C49.2322 23.3651 49.5967 23.0384 49.8903 22.598C50.1886 22.1577 50.3377 21.5966 50.3377 20.9148ZM62.8111 16.9091L61.3054 17.3352C61.2107 17.0843 61.0711 16.8404 60.8864 16.6037C60.7065 16.3622 60.4603 16.1634 60.1478 16.0071C59.8353 15.8509 59.4352 15.7727 58.9475 15.7727C58.2799 15.7727 57.7235 15.9266 57.2784 16.2344C56.8381 16.5374 56.6179 16.9233 56.6179 17.392C56.6179 17.8087 56.7694 18.1378 57.0725 18.3793C57.3755 18.6207 57.849 18.822 58.4929 18.983L60.1122 19.3807C61.0876 19.6174 61.8144 19.9796 62.2926 20.4673C62.7709 20.9503 63.01 21.5729 63.01 22.3352C63.01 22.9602 62.83 23.5189 62.4702 24.0114C62.1151 24.5038 61.6179 24.892 60.9787 25.1761C60.3395 25.4602 59.5961 25.6023 58.7486 25.6023C57.6359 25.6023 56.715 25.3608 55.9858 24.8778C55.2567 24.3949 54.795 23.6894 54.6009 22.7614L56.1918 22.3636C56.3433 22.9508 56.6298 23.3911 57.0512 23.6847C57.4773 23.9782 58.0336 24.125 58.7202 24.125C59.5014 24.125 60.1217 23.9593 60.581 23.6278C61.045 23.2917 61.277 22.8892 61.277 22.4205C61.277 22.0417 61.1444 21.7244 60.8793 21.4688C60.6141 21.2083 60.2069 21.0142 59.6577 20.8864L57.8395 20.4602C56.8405 20.2235 56.1066 19.8565 55.6378 19.3594C55.1738 18.8575 54.9418 18.2301 54.9418 17.4773C54.9418 16.8617 55.1146 16.3172 55.4603 15.8438C55.8106 15.3703 56.2865 14.9986 56.8878 14.7287C57.4939 14.4588 58.1804 14.3239 58.9475 14.3239C60.027 14.3239 60.8746 14.5606 61.4901 15.0341C62.1103 15.5076 62.5507 16.1326 62.8111 16.9091ZM69.9649 25.6023C68.9421 25.6023 68.0615 25.3608 67.3228 24.8778C66.5842 24.3949 66.016 23.7296 65.6183 22.8821C65.2206 22.0346 65.0217 21.0663 65.0217 19.9773C65.0217 18.8693 65.2253 17.8916 65.6325 17.044C66.0444 16.1918 66.6173 15.5265 67.3512 15.0483C68.0899 14.5653 68.9516 14.3239 69.9365 14.3239C70.7035 14.3239 71.3948 14.4659 72.0103 14.75C72.6259 15.0341 73.1301 15.4318 73.5231 15.9432C73.9161 16.4545 74.1599 17.0511 74.2546 17.733H72.5785C72.4507 17.2358 72.1666 16.7955 71.7262 16.4119C71.2906 16.0237 70.7035 15.8295 69.9649 15.8295C69.3115 15.8295 68.7385 16 68.2461 16.3409C67.7584 16.6771 67.3773 17.1529 67.1027 17.7685C66.8328 18.3793 66.6978 19.0966 66.6978 19.9205C66.6978 20.7633 66.8304 21.4972 67.0956 22.1222C67.3654 22.7472 67.7442 23.2325 68.2319 23.5781C68.7243 23.9238 69.302 24.0966 69.9649 24.0966C70.4005 24.0966 70.7958 24.0208 71.151 23.8693C71.5061 23.7178 71.8067 23.5 72.0529 23.2159C72.2992 22.9318 72.4743 22.5909 72.5785 22.1932H74.2546C74.1599 22.8371 73.9256 23.4171 73.5515 23.9332C73.1822 24.4446 72.6921 24.8518 72.0813 25.1548C71.4753 25.4531 70.7698 25.6023 69.9649 25.6023ZM79.9152 25.6307C79.2239 25.6307 78.5965 25.5005 78.0331 25.2401C77.4696 24.9749 77.0222 24.5938 76.6907 24.0966C76.3593 23.5947 76.1936 22.9886 76.1936 22.2784C76.1936 21.6534 76.3167 21.1468 76.5629 20.7585C76.8091 20.3655 77.1382 20.0578 77.5501 19.8352C77.962 19.6127 78.4166 19.447 78.9137 19.3381C79.4156 19.2244 79.9199 19.1345 80.4265 19.0682C81.0894 18.983 81.6268 18.919 82.0387 18.8764C82.4554 18.8291 82.7584 18.7509 82.9478 18.642C83.142 18.5331 83.239 18.3437 83.239 18.0739V18.017C83.239 17.3163 83.0473 16.7718 82.6637 16.3835C82.2849 15.9953 81.7097 15.8011 80.9379 15.8011C80.1377 15.8011 79.5103 15.9763 79.0558 16.3267C78.6012 16.6771 78.2816 17.0511 78.097 17.4489L76.5061 16.8807C76.7902 16.2178 77.1689 15.7017 77.6424 15.3324C78.1206 14.9583 78.6415 14.6979 79.2049 14.5511C79.7731 14.3996 80.3318 14.3239 80.8811 14.3239C81.2314 14.3239 81.6339 14.3665 82.0885 14.4517C82.5477 14.5322 82.9904 14.7003 83.4166 14.956C83.8474 15.2116 84.2049 15.5975 84.489 16.1136C84.7731 16.6297 84.9152 17.321 84.9152 18.1875V25.375H83.239V23.8977H83.1538C83.0402 24.1345 82.8508 24.3878 82.5856 24.6577C82.3205 24.9276 81.9677 25.1572 81.5274 25.3466C81.087 25.536 80.5496 25.6307 79.9152 25.6307ZM80.1708 24.125C80.8337 24.125 81.3924 23.9948 81.847 23.7344C82.3063 23.474 82.6519 23.1378 82.8839 22.7259C83.1206 22.3139 83.239 21.8807 83.239 21.4261V19.892C83.168 19.9773 83.0117 20.0554 82.7703 20.1264C82.5335 20.1927 82.2589 20.2519 81.9464 20.304C81.6386 20.3513 81.338 20.3939 81.0444 20.4318C80.7556 20.465 80.5212 20.4934 80.3413 20.517C79.9057 20.5739 79.4985 20.6662 79.1197 20.794C78.7456 20.9171 78.4426 21.1042 78.2106 21.3551C77.9833 21.6013 77.8697 21.9375 77.8697 22.3636C77.8697 22.946 78.0851 23.3864 78.516 23.6847C78.9516 23.9782 79.5032 24.125 80.1708 24.125ZM87.9745 25.375V14.4659H89.5938V16.1136H89.7074C89.9063 15.5739 90.2661 15.1359 90.787 14.7997C91.3078 14.4635 91.8949 14.2955 92.5483 14.2955C92.6714 14.2955 92.8253 14.2978 93.01 14.3026C93.1946 14.3073 93.3343 14.3144 93.429 14.3239V16.0284C93.3722 16.0142 93.242 15.9929 93.0384 15.9645C92.8395 15.9313 92.6288 15.9148 92.4063 15.9148C91.876 15.9148 91.4025 16.026 90.9858 16.2486C90.5739 16.4664 90.2472 16.7694 90.0057 17.1577C89.769 17.5412 89.6506 17.9792 89.6506 18.4716V25.375H87.9745Z" fill="white" fill-opacity="0.5"/>
</svg>
