<svg width="94" height="24" viewBox="0 0 94 24" fill="none" xmlns="http://www.w3.org/2000/svg">
<path d="M21 19V5C21 3.9 20.1 3 19 3H5C3.9 3 3 3.9 3 5V19C3 20.1 3.9 21 5 21H19C20.1 21 21 20.1 21 19ZM8.5 13.5L11 16.51L14.5 12L19 18H5L8.5 13.5Z" fill="#F4F4F4"/>
<g clip-path="url(#clip0_6_129)">
<path fill-rule="evenodd" clip-rule="evenodd" d="M47 2C52.523 2 57 6.477 57 12C57 17.523 52.523 22 47 22C41.477 22 37 17.523 37 12C37 6.477 41.477 2 47 2ZM49.8 13.857C49.0532 14.5912 48.0473 15.0018 47 15C45.9527 15.0018 44.9468 14.5912 44.2 13.857C44.1067 13.7629 43.9956 13.6882 43.8732 13.6374C43.7508 13.5866 43.6196 13.5606 43.487 13.561C43.3545 13.5614 43.2234 13.5881 43.1013 13.6396C42.9792 13.6911 42.8685 13.7663 42.7757 13.8609C42.683 13.9556 42.6099 14.0677 42.5609 14.1908C42.5118 14.3139 42.4877 14.4455 42.4899 14.578C42.4922 14.7105 42.5208 14.8413 42.574 14.9626C42.6272 15.084 42.7041 15.1936 42.8 15.285C43.9206 16.3858 45.4292 17.0018 47 17C48.5708 17.0018 50.0794 16.3858 51.2 15.285C51.385 15.0984 51.4891 14.8465 51.4898 14.5838C51.4905 14.321 51.3878 14.0685 51.2039 13.8809C51.0199 13.6933 50.7695 13.5856 50.5068 13.5811C50.2441 13.5767 49.9902 13.6758 49.8 13.857ZM43.5 8C43.1022 8 42.7206 8.15804 42.4393 8.43934C42.158 8.72064 42 9.10218 42 9.5C42 9.89782 42.158 10.2794 42.4393 10.5607C42.7206 10.842 43.1022 11 43.5 11C43.8978 11 44.2794 10.842 44.5607 10.5607C44.842 10.2794 45 9.89782 45 9.5C45 9.10218 44.842 8.72064 44.5607 8.43934C44.2794 8.15804 43.8978 8 43.5 8ZM50.5 8C50.1022 8 49.7206 8.15804 49.4393 8.43934C49.158 8.72064 49 9.10218 49 9.5C49 9.89782 49.158 10.2794 49.4393 10.5607C49.7206 10.842 50.1022 11 50.5 11C50.8978 11 51.2794 10.842 51.5607 10.5607C51.842 10.2794 52 9.89782 52 9.5C52 9.10218 51.842 8.72064 51.5607 8.43934C51.2794 8.15804 50.8978 8 50.5 8Z" fill="#F4F4F4"/>
</g>
<path d="M87 7H83V9H87C88.65 9 90 10.35 90 12C90 13.65 88.65 15 87 15H83V17H87C89.76 17 92 14.76 92 12C92 9.24 89.76 7 87 7ZM81 15H77C75.35 15 74 13.65 74 12C74 10.35 75.35 9 77 9H81V7H77C74.24 7 72 9.24 72 12C72 14.76 74.24 17 77 17H81V15ZM78 11H86V13H78V11Z" fill="#F4F4F4"/>
<defs>
<clipPath id="clip0_6_129">
<rect width="24" height="24" fill="white" transform="translate(35)"/>
</clipPath>
</defs>
</svg>
