<svg width="60" height="63" viewBox="0 0 60 63" fill="none" xmlns="http://www.w3.org/2000/svg">
<path fill-rule="evenodd" clip-rule="evenodd" d="M59.0185 24.7371C59.3715 26.059 59.642 27.404 59.7945 28.7625C60.1092 31.4762 60.0704 34.2315 59.6231 36.9193C59.4006 38.2633 59.088 39.59 58.6877 40.8892C58.2787 42.1852 57.7813 43.4515 57.202 44.6774C56.6238 45.9033 55.9631 47.0905 55.2109 48.2151C54.457 49.3386 53.6288 50.4088 52.7353 51.4192C53.583 50.37 54.3595 49.2664 55.0573 48.1176C55.7643 46.9741 56.3808 45.7772 56.9115 44.5459C57.4434 43.3152 57.8917 42.0499 58.2517 40.7609C58.6031 39.4698 58.866 38.1566 59.0401 36.8331C59.0886 36.4807 59.129 36.1272 59.164 35.7732C59.0164 36.6909 58.8288 37.601 58.5982 38.4993C59.0401 36.492 59.2718 34.4411 59.2923 32.3918C59.2152 28.5475 58.3751 24.728 56.8253 21.2269C55.8624 19.0801 54.6364 17.0523 53.1874 15.2029C53.5603 15.7079 53.9154 16.2257 54.2517 16.756C54.9264 17.8272 55.5283 18.9427 56.0526 20.0926C56.5688 21.2469 57.0053 22.434 57.3599 23.6443C58.0841 26.0622 58.4155 28.5841 58.4225 31.0936C58.2199 26.0789 56.6599 21.1353 53.8562 17.0135C52.4847 14.9367 50.8121 13.0658 48.9304 11.4486C47.0476 9.82988 44.9309 8.49457 42.6838 7.45725C38.1751 5.41871 33.1103 4.61148 28.2136 5.27537C23.318 5.91339 18.6201 7.94708 14.7941 11.0607C10.9509 14.1516 7.98608 18.3289 6.38295 22.9998C6.31626 23.1848 6.25835 23.3728 6.20039 23.5609C6.16749 23.6677 6.13458 23.7745 6.10004 23.8809C6.00628 24.1751 5.91305 24.4688 5.84192 24.7695L5.61075 25.6661L5.42322 26.5731L5.33054 27.0268L5.26048 27.4843L5.12361 28.4004C5.10676 28.5926 5.08671 28.7846 5.06665 28.9766C5.02254 29.3988 4.97842 29.8211 4.96842 30.246C4.83262 32.7129 5.0611 35.1976 5.60266 37.6129C6.69764 42.446 9.19045 46.9574 12.6791 50.5058C13.5494 51.3944 14.4703 52.2388 15.4623 52.9943C15.7994 53.2708 16.1561 53.5199 16.5131 53.7693C16.6675 53.8772 16.822 53.9851 16.9749 54.0952C17.134 54.1939 17.2918 54.295 17.4497 54.3961C17.8176 54.6316 18.1857 54.8673 18.5711 55.0743C20.7368 56.3229 23.0911 57.2379 25.5225 57.8597C20.5956 56.858 15.977 54.3668 12.3477 50.8378C8.72864 47.2963 6.0995 42.7289 4.88543 37.7837C3.64226 32.8423 3.89822 27.5436 5.52291 22.7056C7.15191 17.8601 10.2213 13.5271 14.189 10.3127C17.891 7.31876 22.3717 5.29477 27.069 4.52095C23.4203 4.97252 19.859 6.12678 16.6559 7.94169C16.4697 8.04309 16.2885 8.1536 16.1072 8.26408C16.0062 8.32564 15.9052 8.38719 15.8034 8.44715C15.5195 8.61635 15.236 8.78556 14.9655 8.97632L14.1432 9.53081L13.3489 10.1246L12.9523 10.4226L12.5713 10.74L11.8104 11.3775C11.6615 11.5186 11.5102 11.6574 11.3589 11.7962C11.0225 12.1047 10.686 12.4133 10.3749 12.7479C8.51255 14.6301 6.93205 16.7867 5.65278 19.1103C3.10878 23.7693 1.88717 29.1532 2.15014 34.4858C2.19378 35.3792 2.27354 36.2732 2.3964 37.1613C3.00424 40.3508 4.14395 43.4445 5.76702 46.266C6.43198 47.4256 7.16107 48.5535 7.98877 49.6075C8.26575 49.9877 8.57082 50.345 8.87611 50.7026C9.00617 50.855 9.13628 51.0074 9.26427 51.1616C9.40325 51.3076 9.54024 51.4556 9.67724 51.6036C9.99602 51.948 10.3149 52.2925 10.6594 52.6117C12.5735 54.4967 14.7747 56.0842 17.135 57.3877C13.3494 55.5238 10.0101 52.7664 7.39009 49.4308C7.54852 49.6474 7.71018 49.8613 7.88262 50.0672C9.61831 52.2771 11.6795 54.2272 13.9567 55.8837C18.5269 59.1811 24.0357 61.1862 29.6917 61.6205C31.1051 61.731 32.5294 61.7655 33.9482 61.6701C34.4452 61.6543 34.9388 61.6007 35.4328 61.547C35.6464 61.5238 35.86 61.5006 36.074 61.4804C36.2841 61.4461 36.4948 61.4146 36.7057 61.3832C37.1992 61.3096 37.6934 61.236 38.1805 61.1242C39.5821 60.8575 40.9557 60.4549 42.3055 59.9877L43.3148 59.6229C43.5311 59.5387 43.7446 59.4482 43.9581 59.3577C44.074 59.3085 44.19 59.2594 44.3063 59.2112L44.8016 59.0027L45.2865 58.771L46.2554 58.3038C41.2924 61.2023 35.443 62.5792 29.6486 62.3232C23.8531 62.0505 18.1098 60.1424 13.3106 56.8014C8.48669 53.4933 4.67527 48.741 2.3937 43.3399C0.111597 37.9281 -0.535584 31.8599 0.43869 26.0751C1.42482 20.2899 4.02809 14.7848 7.92141 10.3908C8.90108 9.29856 9.95349 8.27471 11.0668 7.32145C11.2476 7.16748 11.4339 7.02006 11.6201 6.87276C11.7212 6.79272 11.8223 6.71271 11.9225 6.6317L12.352 6.28952L12.7971 5.96728L13.6905 5.32818L14.6142 4.73435C17.0849 3.15977 19.7965 1.98342 22.6029 1.17512C24.0093 0.779591 25.4427 0.485908 26.8874 0.286527C28.3327 0.0887619 29.7908 -0.0184729 31.2474 0.00254293C34.1589 0.0327196 37.0661 0.441182 39.8477 1.27158C41.238 1.68705 42.5981 2.19574 43.9167 2.7928C45.231 3.39903 46.5022 4.09417 47.719 4.87068C48.9363 5.64611 50.1013 6.50291 51.1877 7.44809C52.2724 8.39542 53.2903 9.41388 54.2361 10.4932C53.2365 9.46291 52.1717 8.5005 51.0487 7.61621C49.9332 6.72223 48.7498 5.91608 47.5191 5.19669C46.2894 4.47623 45.0123 3.83928 43.6996 3.29287C42.3826 2.75562 41.0316 2.30782 39.6586 1.95325C34.1713 0.500457 28.3116 0.627091 22.9208 2.25609C17.5408 3.91311 12.6182 7.04286 8.94957 11.2934C7.77592 12.6374 6.72674 14.0869 5.80959 15.6163C5.8267 15.5897 5.84327 15.5629 5.85983 15.5361C5.8803 15.5029 5.90076 15.4698 5.92221 15.4373C8.92856 10.8494 13.2902 7.1835 18.2812 4.92295C23.2748 2.66509 28.8974 1.80721 34.333 2.52445C35.6904 2.71089 37.0338 2.99003 38.354 3.35269C38.5658 3.41161 38.7757 3.47811 38.9857 3.54458C39.1021 3.58147 39.2186 3.61834 39.3353 3.65391L39.8251 3.80749L40.3074 3.9837L41.2698 4.34097L42.2128 4.74512C44.7245 5.8331 47.0551 7.31768 49.1502 9.06792C51.2303 10.8376 53.077 12.8804 54.5896 15.148C55.1694 16.0182 55.7045 16.9176 56.1922 17.8418C56.7456 18.8177 57.2467 19.8232 57.6891 20.853C58.2221 22.1161 58.6634 23.4158 59.0185 24.7371ZM46.4979 21.8477H15.6848V14.1446H38.7948C42.9812 14.1446 46.3896 17.4882 46.4957 21.6478C46.4979 21.7155 46.4979 21.7801 46.4979 21.8473V21.8477ZM19.5367 48.8094V25.7H27.2398V41.1063C27.2398 45.3596 23.7905 48.8094 19.5367 48.8094ZM34.9429 48.8094V25.7H42.646V41.1063C42.646 45.3596 39.1967 48.8094 34.9429 48.8094Z" fill="url(#paint0_linear_3189_22)"/>
<defs>
<linearGradient id="paint0_linear_3189_22" x1="3.41847e-06" y1="27.8203" x2="60" y2="27.8203" gradientUnits="userSpaceOnUse">
<stop stop-color="#F4F4F4" stop-opacity="0.86"/>
<stop offset="1" stop-color="#F4F4F4"/>
</linearGradient>
</defs>
</svg>
